<?xml version="1.0" encoding="UTF-8" standalone="no"?>
<!-- Created with Inkscape (http://www.inkscape.org/) -->

<svg xmlns:dc="http://purl.org/dc/elements/1.1/" xmlns:cc="http://creativecommons.org/ns#" xmlns:rdf="http://www.w3.org/1999/02/22-rdf-syntax-ns#" xmlns:svg="http://www.w3.org/2000/svg" xmlns="http://www.w3.org/2000/svg" version="1.1" width="977.43433" height="194.50502" id="svg2">
     <defs id="defs4">
          <filter x="-0.034831714" y="-0.24324714" width="1.0696634" height="1.4864943" color-interpolation-filters="sRGB" id="filter3767">
               <feGaussianBlur id="feGaussianBlur3769" stdDeviation="13.261849" />
          </filter>
     </defs>
     <metadata id="metadata7">
          <rdf:RDF>
               <cc:Work rdf:about="">
                    <dc:format>image/svg+xml</dc:format>
                    <dc:type rdf:resource="http://purl.org/dc/dcmitype/StillImage" />
                    <dc:title></dc:title>
               </cc:Work>
          </rdf:RDF>
     </metadata>
     <g transform="translate(106.64802,-46.435584)" id="g3823" style="display:inline">
          <g id="g3825" style="font-size:173px;font-style:normal;font-variant:normal;font-weight:bold;font-stretch:normal;text-align:start;line-height:125%;letter-spacing:-19.67000771px;word-spacing:0px;writing-mode:lr-tb;text-anchor:start;fill:#ffffff;fill-opacity:1;stroke:none;filter:url(#filter3767);font-family:DejaVu Sans Condensed;-inkscape-font-specification:'DejaVu Sans Condensed, Bold'">
               <path d="m 745.53113,80.544785 48.57178,0 c 14.4729,1.26e-4 25.56696,3.562052 33.28222,10.685791 7.71507,7.123969 11.57265,17.274754 11.57276,30.452394 -1.1e-4,13.23412 -3.85769,23.41306 -11.57276,30.53686 -7.71526,7.12391 -18.80932,10.68584 -33.28222,10.68579 l -19.25977,0 0,43.75684 -29.31201,0 z m 29.31201,23.567875 0,35.22509 16.13428,0 c 5.68776,7e-5 10.08033,-1.53451 13.17773,-4.60376 3.09726,-3.06909 4.64592,-7.41943 4.646,-13.05102 -8e-5,-5.63142 -1.54874,-9.96768 -4.646,-13.00879 -3.0974,-3.04092 -7.48997,-4.56142 -13.17773,-4.56152 z m -67.42133,-23.567875 29.31202,0 0,126.117675 -29.31202,0 z m -79.6698,0 29.31202,0 0,101.536135 51.35937,0 0,24.58154 -80.67139,0 z m -106.70111,0 29.31202,0 0,75.603025 c -5e-5,10.41834 1.53454,17.866 4.60375,22.34302 3.06913,4.47707 8.06709,6.7156 14.9939,6.71558 6.983,2e-5 12.00912,-2.23851 15.07837,-6.71558 3.06909,-4.47702 4.60368,-11.92468 4.60376,-22.34302 l 0,-75.603025 29.31201,0 0,75.603025 c -1.1e-4,17.85192 -4.04071,31.14227 -12.12182,39.8711 -8.08131,8.72884 -20.37207,13.09325 -36.87232,13.09326 -16.50037,-1e-5 -28.77705,-4.36442 -36.83008,-13.09326 -8.05308,-8.72883 -12.0796,-22.01918 -12.07959,-39.8711 z m -99.94326,0 104.57714,0 0,24.581545 -37.59033,0 0,101.53613 -29.31201,0 0,-101.53613 -37.6748,0 z m -121.83381,0 29.31202,0 0,46.037595 42.15185,-46.037595 34.04248,0 -54.73828,59.722165 60.31348,66.39551 -36.66114,0 -45.10839,-49.66992 0,49.66992 -29.31202,0 z M 294.78467,199.7357 c -5.40635,3.09734 -11.02378,5.43441 -16.8523,7.01123 -5.82869,1.57682 -11.89664,2.36523 -18.20385,2.36524 -18.92193,-1e-5 -33.90173,-5.87085 -44.93946,-17.61255 -11.03777,-11.74167 -16.55665,-27.66475 -16.55664,-47.76929 -1e-5,-20.16072 5.51887,-36.11196 16.55664,-47.853758 11.03773,-11.741577 26.01753,-17.612421 44.93946,-17.612549 6.30721,1.28e-4 12.37516,0.788539 18.20385,2.365234 5.82852,1.576948 11.44595,3.914022 16.8523,7.011231 l 0,26.102052 c -5.46267,-4.11091 -10.82667,-7.12376 -16.09204,-9.03858 -5.26555,-1.91461 -10.7985,-2.87196 -16.59888,-2.87207 -10.47467,1.1e-4 -18.69667,3.7169 -24.66602,11.15039 -5.96944,7.43368 -8.95414,17.68302 -8.9541,30.74805 -4e-5,13.00884 2.98466,23.23002 8.9541,30.66358 5.96935,7.43361 14.19135,11.15041 24.66602,11.15039 5.80038,2e-5 11.33333,-0.95734 16.59888,-2.87207 5.26537,-1.91469 10.62937,-4.92755 16.09204,-9.03858 z m -122.07512,-16.0498 -45.78418,0 -7.26465,22.97656 -29.396484,0 42.067384,-126.117675 34.88721,0 42.06738,126.117675 -29.48096,0 z m -38.51953,-23.39893 31.08594,0 -15.4585,-50.17676 z M 24.110023,80.544785 l 29.312012,0 0,101.536135 51.359375,0 0,24.58154 -80.671387,0 z m -53.483314,48.825195 c 4.617774,8e-5 8.123386,-1.12622 10.516846,-3.37891 2.393319,-2.25252 3.590014,-5.57511 3.590088,-9.96777 -7.4e-5,-4.33617 -1.196769,-7.64468 -3.590088,-9.92554 -2.39346,-2.28066 -5.899072,-3.42104 -10.516846,-3.42114 l -16.134277,0 0,26.69336 z m 1.013672,55.16064 c 5.913019,3e-5 10.347829,-1.37969 13.304443,-4.13916 2.956466,-2.75941 4.434736,-6.92672 4.434815,-12.50195 -7.9e-5,-5.46252 -1.478349,-9.55944 -4.434815,-12.29077 -2.956614,-2.73123 -7.391424,-4.09687 -13.304443,-4.09692 l -17.147949,0 0,33.0288 z m 27.2001952,-45.36181 c 6.3071974,2.02741 11.1784488,5.77236 14.6137698,11.23486 3.435115,5.46262 5.152724,12.16411 5.152832,20.10449 -1.08e-4,12.16409 -3.702822,21.23081 -11.1081546,27.2002 -7.40552535,5.9694 -18.6544564,8.9541 -33.7468264,8.9541 l -48.571777,0 0,-126.117675 43.925781,0 c 15.768155,1.26e-4 27.1860313,2.646933 34.2536623,7.940429 7.0674457,5.293733 10.6012157,13.769146 10.6013187,25.426266 -1.03e-4,6.13844 -1.281271,11.36166 -3.843506,15.66968 -2.5624341,4.30818 -6.3214636,7.50406 -11.2770998,9.58765 z" id="path3827" style="fill:#ffffff;fill-opacity:1" />
          </g>
     </g>
     <g transform="translate(106.64802,-46.435584)" id="g3817" style="display:inline">
          <g id="g3819" style="font-size:173px;font-style:normal;font-variant:normal;font-weight:bold;font-stretch:normal;text-align:start;line-height:125%;letter-spacing:-19.67000771px;word-spacing:0px;writing-mode:lr-tb;text-anchor:start;fill:#212121;fill-opacity:1;stroke:none;font-family:DejaVu Sans Condensed;-inkscape-font-specification:'DejaVu Sans Condensed, Bold'">
               <path d="m 745.53113,80.544785 48.57178,0 c 14.4729,1.26e-4 25.56696,3.562052 33.28222,10.685791 7.71507,7.123969 11.57265,17.274754 11.57276,30.452394 -1.1e-4,13.23412 -3.85769,23.41306 -11.57276,30.53686 -7.71526,7.12391 -18.80932,10.68584 -33.28222,10.68579 l -19.25977,0 0,43.75684 -29.31201,0 z m 29.31201,23.567875 0,35.22509 16.13428,0 c 5.68776,7e-5 10.08033,-1.53451 13.17773,-4.60376 3.09726,-3.06909 4.64592,-7.41943 4.646,-13.05102 -8e-5,-5.63142 -1.54874,-9.96768 -4.646,-13.00879 -3.0974,-3.04092 -7.48997,-4.56142 -13.17773,-4.56152 z m -67.42133,-23.567875 29.31202,0 0,126.117675 -29.31202,0 z m -79.6698,0 29.31202,0 0,101.536135 51.35937,0 0,24.58154 -80.67139,0 z m -106.70111,0 29.31202,0 0,75.603025 c -5e-5,10.41834 1.53454,17.866 4.60375,22.34302 3.06913,4.47707 8.06709,6.7156 14.9939,6.71558 6.983,2e-5 12.00912,-2.23851 15.07837,-6.71558 3.06909,-4.47702 4.60368,-11.92468 4.60376,-22.34302 l 0,-75.603025 29.31201,0 0,75.603025 c -1.1e-4,17.85192 -4.04071,31.14227 -12.12182,39.8711 -8.08131,8.72884 -20.37207,13.09325 -36.87232,13.09326 -16.50037,-1e-5 -28.77705,-4.36442 -36.83008,-13.09326 -8.05308,-8.72883 -12.0796,-22.01918 -12.07959,-39.8711 z m -99.94326,0 104.57714,0 0,24.581545 -37.59033,0 0,101.53613 -29.31201,0 0,-101.53613 -37.6748,0 z m -121.83381,0 29.31202,0 0,46.037595 42.15185,-46.037595 34.04248,0 -54.73828,59.722165 60.31348,66.39551 -36.66114,0 -45.10839,-49.66992 0,49.66992 -29.31202,0 z M 294.78467,199.7357 c -5.40635,3.09734 -11.02378,5.43441 -16.8523,7.01123 -5.82869,1.57682 -11.89664,2.36523 -18.20385,2.36524 -18.92193,-1e-5 -33.90173,-5.87085 -44.93946,-17.61255 -11.03777,-11.74167 -16.55665,-27.66475 -16.55664,-47.76929 -1e-5,-20.16072 5.51887,-36.11196 16.55664,-47.853758 11.03773,-11.741577 26.01753,-17.612421 44.93946,-17.612549 6.30721,1.28e-4 12.37516,0.788539 18.20385,2.365234 5.82852,1.576948 11.44595,3.914022 16.8523,7.011231 l 0,26.102052 c -5.46267,-4.11091 -10.82667,-7.12376 -16.09204,-9.03858 -5.26555,-1.91461 -10.7985,-2.87196 -16.59888,-2.87207 -10.47467,1.1e-4 -18.69667,3.7169 -24.66602,11.15039 -5.96944,7.43368 -8.95414,17.68302 -8.9541,30.74805 -4e-5,13.00884 2.98466,23.23002 8.9541,30.66358 5.96935,7.43361 14.19135,11.15041 24.66602,11.15039 5.80038,2e-5 11.33333,-0.95734 16.59888,-2.87207 5.26537,-1.91469 10.62937,-4.92755 16.09204,-9.03858 z m -122.07512,-16.0498 -45.78418,0 -7.26465,22.97656 -29.396484,0 42.067384,-126.117675 34.88721,0 42.06738,126.117675 -29.48096,0 z m -38.51953,-23.39893 31.08594,0 -15.4585,-50.17676 z M 24.110023,80.544785 l 29.312012,0 0,101.536135 51.359375,0 0,24.58154 -80.671387,0 z m -53.483314,48.825195 c 4.617774,8e-5 8.123386,-1.12622 10.516846,-3.37891 2.393319,-2.25252 3.590014,-5.57511 3.590088,-9.96777 -7.4e-5,-4.33617 -1.196769,-7.64468 -3.590088,-9.92554 -2.39346,-2.28066 -5.899072,-3.42104 -10.516846,-3.42114 l -16.134277,0 0,26.69336 z m 1.013672,55.16064 c 5.913019,3e-5 10.347829,-1.37969 13.304443,-4.13916 2.956466,-2.75941 4.434736,-6.92672 4.434815,-12.50195 -7.9e-5,-5.46252 -1.478349,-9.55944 -4.434815,-12.29077 -2.956614,-2.73123 -7.391424,-4.09687 -13.304443,-4.09692 l -17.147949,0 0,33.0288 z m 27.2001952,-45.36181 c 6.3071974,2.02741 11.1784488,5.77236 14.6137698,11.23486 3.435115,5.46262 5.152724,12.16411 5.152832,20.10449 -1.08e-4,12.16409 -3.702822,21.23081 -11.1081546,27.2002 -7.40552535,5.9694 -18.6544564,8.9541 -33.7468264,8.9541 l -48.571777,0 0,-126.117675 43.925781,0 c 15.768155,1.26e-4 27.1860313,2.646933 34.2536623,7.940429 7.0674457,5.293733 10.6012157,13.769146 10.6013187,25.426266 -1.03e-4,6.13844 -1.281271,11.36166 -3.843506,15.66968 -2.5624341,4.30818 -6.3214636,7.50406 -11.2770998,9.58765 z" id="path3821" style="fill:#212121;fill-opacity:1" />
          </g>
     </g>
</svg>
