<?xml version="1.0" encoding="UTF-8" standalone="no"?>
<!-- Created with Inkscape (http://www.inkscape.org/) -->

<svg xmlns:dc="http://purl.org/dc/elements/1.1/" xmlns:cc="http://creativecommons.org/ns#" xmlns:rdf="http://www.w3.org/1999/02/22-rdf-syntax-ns#" xmlns:svg="http://www.w3.org/2000/svg" xmlns="http://www.w3.org/2000/svg" version="1.1" width="611.8335" height="794.5296" id="svg2" viewBox="0 0 611.8335 712">
     <defs id="defs4">
          <filter color-interpolation-filters="sRGB" id="filter3964">
               <feGaussianBlur id="feGaussianBlur3966" stdDeviation="16.996791" />
          </filter>
          <filter color-interpolation-filters="sRGB" id="filter3986">
               <feGaussianBlur result="result1" stdDeviation="5" id="feGaussianBlur3988" />
               <feComposite in2="result1" operator="arithmetic" k1="0" k2="2" k3="0" k4="0" in="result1" id="feComposite3990" />
          </filter>
     </defs>
     <metadata id="metadata7">
          <rdf:RDF>
               <cc:Work rdf:about="">
                    <dc:format>image/svg+xml</dc:format>
                    <dc:type rdf:resource="http://purl.org/dc/dcmitype/StillImage" />
                    <dc:title></dc:title>
               </cc:Work>
          </rdf:RDF>
     </metadata>
     <g transform="translate(-50.262771,-95.05998)" id="g3164" style="display:inline">
          <path d="m 133.1721,828.78245 c -23.24143,-46.4386 -34.931509,-80.55202 -39.423699,-115.04438 -6.94657,-53.33778 0.6268,-109.58933 30.419319,-225.94081 26.9669,-105.31639 35.60015,-148.11657 37.92159,-188 3.67411,-63.1231 -12.81678,-105.60832 -58.92716,-151.81311 l -12.107079,-12.13187 5.5193,2.4409 c 23.253099,10.28363 50.938029,26.75598 67.105139,39.92713 35.79015,29.15781 73.38786,83.70404 87.93645,127.57695 7.17533,21.63805 11.37425,51.3936 10.08963,71.5 -2.19182,34.30548 -6.95777,57.47986 -36.50391,177.5 -25.67669,104.30194 -26.20907,106.64037 -28.51053,125.2302 -2.98279,24.09313 -1.50427,52.19084 3.95567,75.17357 7.26174,30.56708 25.48128,67.33876 43.38163,87.5552 l 5.34895,6.04103 -53.09418,0 -53.09418,0 -10.01694,-20.01481 z m 166.1373,7.76481 c -24.53211,-75.58738 -35.71071,-149.48771 -32.27671,-213.37742 1.12717,-20.97122 3.6942,-45.87351 6.17191,-59.87258 10.43597,-58.96346 25.4324,-107.34019 58.2786,-188 15.82447,-38.85985 24.10813,-58.4729 24.69631,-58.4729 0.58818,0 8.87184,19.61305 24.69631,58.4729 32.8462,80.65981 47.84263,129.03654 58.2786,188 2.47771,13.99907 5.04474,38.90136 6.17191,59.87258 3.434,63.88971 -7.7446,137.79004 -32.27671,213.37742 l -3.97578,12.25 -52.89433,0 -52.89433,0 -3.97578,-12.25 z m 169.02117,6.20897 c 13.02884,-14.71461 29.74631,-44.65563 37.38632,-66.95897 10.42678,-30.4387 13.90037,-63.86907 9.95098,-95.7698 -2.30146,-18.58983 -2.83384,-20.92826 -28.51053,-125.2302 -29.54614,-120.02014 -34.31209,-143.19452 -36.50391,-177.5 -1.28462,-20.1064 2.9143,-49.86195 10.08963,-71.5 14.54859,-43.87291 52.1463,-98.41914 87.93645,-127.57695 16.16711,-13.17115 43.85204,-29.6435 67.10514,-39.92713 l 5.5193,-2.4409 -12.10708,12.13187 c -46.11038,46.20479 -62.60127,88.69001 -58.92716,151.81311 2.32144,39.88343 10.95469,82.68361 37.9216,188 29.79251,116.35148 37.36588,172.60303 30.41931,225.94081 -4.49219,34.49236 -16.18227,68.60578 -39.4237,115.04438 l -10.01694,20.01481 -53.09418,0 -53.09418,0 5.34895,-6.04103 z" id="path3166" style="fill:#ffffff;fill-opacity:1;filter:url(#filter3964)" />
     </g>
     <g transform="translate(-50.262771,-95.05998)" id="g3972" style="opacity:0.8;display:inline">
          <path d="m 133.1721,828.78245 c -23.24143,-46.4386 -34.931509,-80.55202 -39.423699,-115.04438 -6.94657,-53.33778 0.6268,-109.58933 30.419319,-225.94081 26.9669,-105.31639 35.60015,-148.11657 37.92159,-188 3.67411,-63.1231 -12.81678,-105.60832 -58.92716,-151.81311 l -12.107079,-12.13187 5.5193,2.4409 c 23.253099,10.28363 50.938029,26.75598 67.105139,39.92713 35.79015,29.15781 73.38786,83.70404 87.93645,127.57695 7.17533,21.63805 11.37425,51.3936 10.08963,71.5 -2.19182,34.30548 -6.95777,57.47986 -36.50391,177.5 -25.67669,104.30194 -26.20907,106.64037 -28.51053,125.2302 -2.98279,24.09313 -1.50427,52.19084 3.95567,75.17357 7.26174,30.56708 25.48128,67.33876 43.38163,87.5552 l 5.34895,6.04103 -53.09418,0 -53.09418,0 -10.01694,-20.01481 z m 166.1373,7.76481 c -24.53211,-75.58738 -35.71071,-149.48771 -32.27671,-213.37742 1.12717,-20.97122 3.6942,-45.87351 6.17191,-59.87258 10.43597,-58.96346 25.4324,-107.34019 58.2786,-188 15.82447,-38.85985 24.10813,-58.4729 24.69631,-58.4729 0.58818,0 8.87184,19.61305 24.69631,58.4729 32.8462,80.65981 47.84263,129.03654 58.2786,188 2.47771,13.99907 5.04474,38.90136 6.17191,59.87258 3.434,63.88971 -7.7446,137.79004 -32.27671,213.37742 l -3.97578,12.25 -52.89433,0 -52.89433,0 -3.97578,-12.25 z m 169.02117,6.20897 c 13.02884,-14.71461 29.74631,-44.65563 37.38632,-66.95897 10.42678,-30.4387 13.90037,-63.86907 9.95098,-95.7698 -2.30146,-18.58983 -2.83384,-20.92826 -28.51053,-125.2302 -29.54614,-120.02014 -34.31209,-143.19452 -36.50391,-177.5 -1.28462,-20.1064 2.9143,-49.86195 10.08963,-71.5 14.54859,-43.87291 52.1463,-98.41914 87.93645,-127.57695 16.16711,-13.17115 43.85204,-29.6435 67.10514,-39.92713 l 5.5193,-2.4409 -12.10708,12.13187 c -46.11038,46.20479 -62.60127,88.69001 -58.92716,151.81311 2.32144,39.88343 10.95469,82.68361 37.9216,188 29.79251,116.35148 37.36588,172.60303 30.41931,225.94081 -4.49219,34.49236 -16.18227,68.60578 -39.4237,115.04438 l -10.01694,20.01481 -53.09418,0 -53.09418,0 5.34895,-6.04103 z" id="path3974" style="fill:#ffffff;fill-opacity:1;filter:url(#filter3986)" />
     </g>
     <g transform="translate(-50.262771,-95.05998)" id="layer1" style="display:inline">
          <path d="m 133.1721,828.78245 c -23.24143,-46.4386 -34.931509,-80.55202 -39.423699,-115.04438 -6.94657,-53.33778 0.6268,-109.58933 30.419319,-225.94081 26.9669,-105.31639 35.60015,-148.11657 37.92159,-188 3.67411,-63.1231 -12.81678,-105.60832 -58.92716,-151.81311 l -12.107079,-12.13187 5.5193,2.4409 c 23.253099,10.28363 50.938029,26.75598 67.105139,39.92713 35.79015,29.15781 73.38786,83.70404 87.93645,127.57695 7.17533,21.63805 11.37425,51.3936 10.08963,71.5 -2.19182,34.30548 -6.95777,57.47986 -36.50391,177.5 -25.67669,104.30194 -26.20907,106.64037 -28.51053,125.2302 -2.98279,24.09313 -1.50427,52.19084 3.95567,75.17357 7.26174,30.56708 25.48128,67.33876 43.38163,87.5552 l 5.34895,6.04103 -53.09418,0 -53.09418,0 -10.01694,-20.01481 z m 166.1373,7.76481 c -24.53211,-75.58738 -35.71071,-149.48771 -32.27671,-213.37742 1.12717,-20.97122 3.6942,-45.87351 6.17191,-59.87258 10.43597,-58.96346 25.4324,-107.34019 58.2786,-188 15.82447,-38.85985 24.10813,-58.4729 24.69631,-58.4729 0.58818,0 8.87184,19.61305 24.69631,58.4729 32.8462,80.65981 47.84263,129.03654 58.2786,188 2.47771,13.99907 5.04474,38.90136 6.17191,59.87258 3.434,63.88971 -7.7446,137.79004 -32.27671,213.37742 l -3.97578,12.25 -52.89433,0 -52.89433,0 -3.97578,-12.25 z m 169.02117,6.20897 c 13.02884,-14.71461 29.74631,-44.65563 37.38632,-66.95897 10.42678,-30.4387 13.90037,-63.86907 9.95098,-95.7698 -2.30146,-18.58983 -2.83384,-20.92826 -28.51053,-125.2302 -29.54614,-120.02014 -34.31209,-143.19452 -36.50391,-177.5 -1.28462,-20.1064 2.9143,-49.86195 10.08963,-71.5 14.54859,-43.87291 52.1463,-98.41914 87.93645,-127.57695 16.16711,-13.17115 43.85204,-29.6435 67.10514,-39.92713 l 5.5193,-2.4409 -12.10708,12.13187 c -46.11038,46.20479 -62.60127,88.69001 -58.92716,151.81311 2.32144,39.88343 10.95469,82.68361 37.9216,188 29.79251,116.35148 37.36588,172.60303 30.41931,225.94081 -4.49219,34.49236 -16.18227,68.60578 -39.4237,115.04438 l -10.01694,20.01481 -53.09418,0 -53.09418,0 5.34895,-6.04103 z" id="path2996" style="fill:#242424;fill-opacity:1" />
     </g>
</svg>
