<?xml version="1.0" encoding="UTF-8" standalone="no"?>
<!-- Created with Inkscape (http://www.inkscape.org/) -->

<svg xmlns:dc="http://purl.org/dc/elements/1.1/" xmlns:cc="http://creativecommons.org/ns#" xmlns:rdf="http://www.w3.org/1999/02/22-rdf-syntax-ns#" xmlns:svg="http://www.w3.org/2000/svg" xmlns="http://www.w3.org/2000/svg" version="1.1" width="649.23871" height="202.65598" id="svg2">
     <defs id="defs4">
          <filter x="-0.034831714" y="-0.24324714" width="1.0696634" height="1.4864943" color-interpolation-filters="sRGB" id="filter3767">
               <feGaussianBlur id="feGaussianBlur3769" stdDeviation="13.261849" />
          </filter>
          <filter x="-0.02979276" y="-0.10987242" width="1.0595855" height="1.2197448" color-interpolation-filters="sRGB" id="filter3803">
               <feGaussianBlur id="feGaussianBlur3805" stdDeviation="7.6062023" />
          </filter>
     </defs>
     <metadata id="metadata7">
          <rdf:RDF>
               <cc:Work rdf:about="">
                    <dc:format>image/svg+xml</dc:format>
                    <dc:type rdf:resource="http://purl.org/dc/dcmitype/StillImage" />
                    <dc:title></dc:title>
               </cc:Work>
          </rdf:RDF>
     </metadata>
     <g transform="translate(81.455423,-46.431273)" id="g3793" style="display:inline">
          <g id="g3795" style="font-size:173px;font-style:normal;font-variant:normal;font-weight:bold;font-stretch:normal;text-align:start;line-height:125%;letter-spacing:-13.14999962px;word-spacing:0px;writing-mode:lr-tb;text-anchor:start;fill:#ffffff;fill-opacity:1;stroke:none;filter:url(#filter3803);font-family:Corbert;-inkscape-font-specification:Corbert Bold">
               <path d="m 549.52837,101.42954 -10.17055,0 -30.36456,76.62071 -30.83167,-76.62071 -10.17573,0 35.5424,86.49888 1.94276,0 -5.50825,13.83982 c -1.42681,3.53923 -3.16421,6.62435 -5.21221,9.25538 -2.04807,2.63099 -4.41475,4.85112 -7.10004,6.66042 -5.78334,3.66175 -12.88835,5.50706 -21.31505,5.53593 l 0,7.6119 c 4.59668,0.018 9.00091,-0.45056 13.2127,-1.40561 4.21175,-0.95513 8.13678,-2.5049 11.7751,-4.64931 3.4419,-2.0616 6.54691,-4.72864 9.31506,-8.00115 2.76806,-3.27257 5.12054,-7.2371 7.05744,-11.8936 z m -118.79776,0 0,-25.252493 -9.92316,0 0,25.252493 -17.49699,0 0,7.65342 17.49699,0 0,42.98302 c 0.0181,5.843 0.88577,10.98326 2.60297,15.42081 1.71715,4.43759 4.17509,8.18306 7.37382,11.23642 3.21184,3.09768 7.0676,5.49384 11.56727,7.18849 4.49959,1.69466 9.53822,2.71289 15.1159,3.05471 l 0,-7.65688 c -4.27299,-0.45606 -8.08348,-1.43134 -11.43148,-2.92583 -3.34809,-1.49447 -6.17725,-3.50686 -8.48748,-6.03718 -2.21564,-2.43378 -3.90381,-5.34159 -5.06452,-8.72342 -1.16078,-3.38179 -1.74522,-7.23416 -1.75333,-11.55711 l 0,-42.98303 26.22473,0 0,-7.65342 z M 387.77888,69.779589 c -1.7082,0.04045 -3.1293,0.590795 -4.26332,1.651045 -1.13405,1.060483 -1.7226,2.388889 -1.76565,3.985221 0.043,1.596484 0.6316,2.924601 1.76566,3.984354 1.13401,1.059971 2.55512,1.610031 4.26331,1.650184 1.70822,-0.04015 3.12961,-0.59021 4.26417,-1.650184 1.13451,-1.059756 1.72336,-2.387873 1.76653,-3.984354 -0.0432,-1.596335 -0.63201,-2.924742 -1.76652,-3.985224 -1.13457,-1.060248 -2.55596,-1.610595 -4.26418,-1.651042 z m 4.96331,118.148831 0,-86.49888 -9.92489,0 0,86.49888 z m -22.66984,-88.737485 -1.16082,-0.0156 c -6.22073,0.0496 -12.12882,1.559915 -17.72427,4.531035 -5.59554,2.97128 -10.53268,7.30365 -14.81142,12.99711 l -0.40654,-15.27224 -8.92323,0 0,86.49888 9.92315,0 0,-62.75667 c 4.22116,-6.31381 9.00793,-10.8816 14.36033,-13.70337 5.35233,-2.82162 10.7926,-4.20668 16.32083,-4.15519 l 2.42197,0.0173 z m -62.44313,88.737485 0,-86.49888 -9.92315,0 0,65.39315 c -5.89996,5.44235 -11.10762,9.36889 -15.623,11.77964 -4.51552,2.41076 -9.46628,3.59226 -14.85229,3.5445 -7.49374,0.004 -14.14103,-2.13057 -19.9419,-6.40373 -5.80093,-4.27313 -8.85938,-10.70886 -9.17536,-19.30719 l 0,-55.00637 -9.92488,0 0,56.7744 c 0.42862,10.77151 4.34825,18.82412 11.75887,24.15784 7.41058,5.33374 15.74035,7.9966 24.98932,7.98861 6.50048,-0.0257 12.28393,-1.38471 17.35038,-4.07713 5.06631,-2.69242 10.42159,-6.56425 16.06587,-11.6155 l 0.35291,13.27066 z M 209.2564,177.06935 c -2.64567,1.72681 -5.73058,3.00598 -9.25473,3.83752 -3.52428,0.83155 -6.87258,1.24487 -10.0449,1.23996 -10.99563,-0.15673 -19.70852,-3.59254 -26.13866,-10.30742 -6.43021,-6.71485 -9.71702,-15.76832 -9.86044,-27.16043 0.0983,-11.07112 3.29461,-20.0329 9.58904,-26.88537 6.29438,-6.85233 15.09715,-10.37983 26.40833,-10.58249 4.10654,0.0252 7.75751,0.46498 10.95292,1.31933 3.19527,0.8545 5.70878,1.97286 7.54054,3.35507 l 5.4477,-6.37151 c -2.54422,-1.85221 -5.92849,-3.36912 -10.1528,-4.55071 -4.22446,-1.181415 -9.01779,-1.791815 -14.38001,-1.831175 -14.53074,0.31397 -25.6978,4.737305 -33.50124,13.270005 -7.80347,8.53286 -11.74659,19.2918 -11.82937,32.27685 0.13165,13.32522 4.17252,24.17383 12.12261,32.54585 7.95004,8.37205 19.01937,12.68957 33.208,12.95257 4.38428,-0.005 8.85166,-0.57407 13.40214,-1.70836 4.55034,-1.13429 8.52121,-2.80573 11.91263,-5.01434 z m -87.35553,-1.65732 c -4.47983,2.44826 -9.16684,4.22646 -14.06105,5.33461 -4.89435,1.10816 -9.778138,1.60661 -14.651387,1.49534 -10.174442,-0.19599 -18.27729,-3.14891 -24.308569,-8.85879 -6.03134,-5.70984 -9.547588,-13.50929 -10.548755,-23.39837 l 74.181441,0 c 0.36569,-2.00973 0.62843,-4.01009 0.78822,-6.00108 0.1596,-1.99091 0.23767,-3.75728 0.2342,-5.29913 -0.0822,-13.05637 -3.695,-22.92834 -10.83853,-29.61593 -7.1437,-6.68743 -17.32568,-10.043445 -30.545994,-10.068035 -14.304437,0.29029 -25.165084,4.655455 -32.581973,13.095505 -7.416932,8.44019 -11.145749,19.21405 -11.186463,32.3216 0.08562,13.44545 3.991044,24.34206 11.716271,32.68987 7.725183,8.34783 18.756374,12.64675 33.093606,12.89677 6.195388,0.003 12.083433,-0.75992 17.664153,-2.28767 5.58058,-1.52775 10.68538,-3.83648 15.31441,-6.92619 z m -63.593983,-31.5669 -0.0069,-1.92546 c 0.207576,-10.33552 3.193082,-18.73881 8.956527,-25.20989 5.763387,-6.47094 14.138634,-9.8067 25.125767,-10.00727 10.107039,-0.0684 17.925379,2.3141 23.455039,7.14762 5.5295,4.83366 8.33091,12.52939 8.40423,23.0872 10e-4,1.0109 -0.035,2.10835 -0.10813,3.29236 -0.0733,1.18411 -0.19067,2.38926 -0.35204,3.61544 z m -121.507425,29.5411 c 5.569541,5.3336 12.920425,9.42961 22.052674,12.28803 9.132188,2.85843 18.598401,4.30238 28.398667,4.33187 12.89327209,0.0553 24.252222,-2.62435 34.076882,-8.039 9.824475,-5.41464 14.9966,-13.8962 15.516388,-25.44472 -0.493116,-12.95572 -5.735016,-21.54642 -15.725716,-25.77213 -9.990885,-4.22559 -21.77252461,-7.31453 -35.344954,-9.26684 -8.756439,-1.34121 -16.431695,-3.6064 -23.025791,-6.79557 -6.594164,-3.18903 -10.061684,-8.7935 -10.402572,-16.813445 0.351701,-8.350464 4.239606,-14.565475 11.663725,-18.645048 7.424049,-4.079355 16.273958,-6.111716 26.5497534,-6.097089 6.493505,0.0054 12.7640177,0.759897 18.811556,2.263457 6.0473766,1.503785 11.4663126,3.72486 16.2568256,6.663232 l 6.0307,-7.390466 C 26.162445,71.391758 19.950966,68.910682 13.023145,67.225276 6.0951551,65.540111 -1.0107202,64.693866 -8.2945016,64.686539 -21.43853,64.649069 -32.906038,67.379336 -42.697061,72.877337 c -9.791081,5.49823 -14.934226,13.989746 -15.429451,25.474568 0.381447,10.817495 4.556743,18.381665 12.525902,22.692555 7.969106,4.31102 17.443319,7.29509 28.422667,8.9522 12.1214534,1.75375 22.2625723,4.16115 30.423386,7.22222 8.160644,3.06118 12.402546,9.50375 12.72572,19.32775 -0.386425,8.68221 -4.36256,14.98955 -11.928416,18.92206 -7.5660286,3.93254 -16.4038256,5.86737 -26.513418,5.80451 -8.864674,-0.0328 -17.300904,-1.3386 -25.308714,-3.91731 -8.007878,-2.5787 -14.407924,-6.23335 -19.200157,-10.96395 z" id="path3797" style="fill:#ffffff;fill-opacity:1" />
          </g>
     </g>
     <g transform="translate(81.455423,-46.431273)" id="g3823" style="display:inline">
          <g id="text3771" style="font-size:173px;font-style:normal;font-variant:normal;font-weight:bold;font-stretch:normal;text-align:start;line-height:125%;letter-spacing:-13.14999962px;word-spacing:0px;writing-mode:lr-tb;text-anchor:start;fill:#000000;fill-opacity:1;stroke:none;font-family:Corbert;-inkscape-font-specification:Corbert Bold">
               <path d="m 549.52837,101.42954 -10.17055,0 -30.36456,76.62071 -30.83167,-76.62071 -10.17573,0 35.5424,86.49888 1.94276,0 -5.50825,13.83982 c -1.42681,3.53923 -3.16421,6.62435 -5.21221,9.25538 -2.04807,2.63099 -4.41475,4.85112 -7.10004,6.66042 -5.78334,3.66175 -12.88835,5.50706 -21.31505,5.53593 l 0,7.6119 c 4.59668,0.018 9.00091,-0.45056 13.2127,-1.40561 4.21175,-0.95513 8.13678,-2.5049 11.7751,-4.64931 3.4419,-2.0616 6.54691,-4.72864 9.31506,-8.00115 2.76806,-3.27257 5.12054,-7.2371 7.05744,-11.8936 z m -118.79776,0 0,-25.252493 -9.92316,0 0,25.252493 -17.49699,0 0,7.65342 17.49699,0 0,42.98302 c 0.0181,5.843 0.88577,10.98326 2.60297,15.42081 1.71715,4.43759 4.17509,8.18306 7.37382,11.23642 3.21184,3.09768 7.0676,5.49384 11.56727,7.18849 4.49959,1.69466 9.53822,2.71289 15.1159,3.05471 l 0,-7.65688 c -4.27299,-0.45606 -8.08348,-1.43134 -11.43148,-2.92583 -3.34809,-1.49447 -6.17725,-3.50686 -8.48748,-6.03718 -2.21564,-2.43378 -3.90381,-5.34159 -5.06452,-8.72342 -1.16078,-3.38179 -1.74522,-7.23416 -1.75333,-11.55711 l 0,-42.98303 26.22473,0 0,-7.65342 z M 387.77888,69.779589 c -1.7082,0.04045 -3.1293,0.590795 -4.26332,1.651045 -1.13405,1.060483 -1.7226,2.388889 -1.76565,3.985221 0.043,1.596484 0.6316,2.924601 1.76566,3.984354 1.13401,1.059971 2.55512,1.610031 4.26331,1.650184 1.70822,-0.04015 3.12961,-0.59021 4.26417,-1.650184 1.13451,-1.059756 1.72336,-2.387873 1.76653,-3.984354 -0.0432,-1.596335 -0.63201,-2.924742 -1.76652,-3.985224 -1.13457,-1.060248 -2.55596,-1.610595 -4.26418,-1.651042 z m 4.96331,118.148831 0,-86.49888 -9.92489,0 0,86.49888 z m -22.66984,-88.737485 -1.16082,-0.0156 c -6.22073,0.0496 -12.12882,1.559915 -17.72427,4.531035 -5.59554,2.97128 -10.53268,7.30365 -14.81142,12.99711 l -0.40654,-15.27224 -8.92323,0 0,86.49888 9.92315,0 0,-62.75667 c 4.22116,-6.31381 9.00793,-10.8816 14.36033,-13.70337 5.35233,-2.82162 10.7926,-4.20668 16.32083,-4.15519 l 2.42197,0.0173 z m -62.44313,88.737485 0,-86.49888 -9.92315,0 0,65.39315 c -5.89996,5.44235 -11.10762,9.36889 -15.623,11.77964 -4.51552,2.41076 -9.46628,3.59226 -14.85229,3.5445 -7.49374,0.004 -14.14103,-2.13057 -19.9419,-6.40373 -5.80093,-4.27313 -8.85938,-10.70886 -9.17536,-19.30719 l 0,-55.00637 -9.92488,0 0,56.7744 c 0.42862,10.77151 4.34825,18.82412 11.75887,24.15784 7.41058,5.33374 15.74035,7.9966 24.98932,7.98861 6.50048,-0.0257 12.28393,-1.38471 17.35038,-4.07713 5.06631,-2.69242 10.42159,-6.56425 16.06587,-11.6155 l 0.35291,13.27066 z M 209.2564,177.06935 c -2.64567,1.72681 -5.73058,3.00598 -9.25473,3.83752 -3.52428,0.83155 -6.87258,1.24487 -10.0449,1.23996 -10.99563,-0.15673 -19.70852,-3.59254 -26.13866,-10.30742 -6.43021,-6.71485 -9.71702,-15.76832 -9.86044,-27.16043 0.0983,-11.07112 3.29461,-20.0329 9.58904,-26.88537 6.29438,-6.85233 15.09715,-10.37983 26.40833,-10.58249 4.10654,0.0252 7.75751,0.46498 10.95292,1.31933 3.19527,0.8545 5.70878,1.97286 7.54054,3.35507 l 5.4477,-6.37151 c -2.54422,-1.85221 -5.92849,-3.36912 -10.1528,-4.55071 -4.22446,-1.181415 -9.01779,-1.791815 -14.38001,-1.831175 -14.53074,0.31397 -25.6978,4.737305 -33.50124,13.270005 -7.80347,8.53286 -11.74659,19.2918 -11.82937,32.27685 0.13165,13.32522 4.17252,24.17383 12.12261,32.54585 7.95004,8.37205 19.01937,12.68957 33.208,12.95257 4.38428,-0.005 8.85166,-0.57407 13.40214,-1.70836 4.55034,-1.13429 8.52121,-2.80573 11.91263,-5.01434 z m -87.35553,-1.65732 c -4.47983,2.44826 -9.16684,4.22646 -14.06105,5.33461 -4.89435,1.10816 -9.778138,1.60661 -14.651387,1.49534 -10.174442,-0.19599 -18.27729,-3.14891 -24.308569,-8.85879 -6.03134,-5.70984 -9.547588,-13.50929 -10.548755,-23.39837 l 74.181441,0 c 0.36569,-2.00973 0.62843,-4.01009 0.78822,-6.00108 0.1596,-1.99091 0.23767,-3.75728 0.2342,-5.29913 -0.0822,-13.05637 -3.695,-22.92834 -10.83853,-29.61593 -7.1437,-6.68743 -17.32568,-10.043445 -30.545994,-10.068035 -14.304437,0.29029 -25.165084,4.655455 -32.581973,13.095505 -7.416932,8.44019 -11.145749,19.21405 -11.186463,32.3216 0.08562,13.44545 3.991044,24.34206 11.716271,32.68987 7.725183,8.34783 18.756374,12.64675 33.093606,12.89677 6.195388,0.003 12.083433,-0.75992 17.664153,-2.28767 5.58058,-1.52775 10.68538,-3.83648 15.31441,-6.92619 z m -63.593983,-31.5669 -0.0069,-1.92546 c 0.207576,-10.33552 3.193082,-18.73881 8.956527,-25.20989 5.763387,-6.47094 14.138634,-9.8067 25.125767,-10.00727 10.107039,-0.0684 17.925379,2.3141 23.455039,7.14762 5.5295,4.83366 8.33091,12.52939 8.40423,23.0872 10e-4,1.0109 -0.035,2.10835 -0.10813,3.29236 -0.0733,1.18411 -0.19067,2.38926 -0.35204,3.61544 z m -121.507425,29.5411 c 5.569541,5.3336 12.920425,9.42961 22.052674,12.28803 9.132188,2.85843 18.598401,4.30238 28.398667,4.33187 12.89327209,0.0553 24.252222,-2.62435 34.076882,-8.039 9.824475,-5.41464 14.9966,-13.8962 15.516388,-25.44472 -0.493116,-12.95572 -5.735016,-21.54642 -15.725716,-25.77213 -9.990885,-4.22559 -21.77252461,-7.31453 -35.344954,-9.26684 -8.756439,-1.34121 -16.431695,-3.6064 -23.025791,-6.79557 -6.594164,-3.18903 -10.061684,-8.7935 -10.402572,-16.813445 0.351701,-8.350464 4.239606,-14.565475 11.663725,-18.645048 7.424049,-4.079355 16.273958,-6.111716 26.5497534,-6.097089 6.493505,0.0054 12.7640177,0.759897 18.811556,2.263457 6.0473766,1.503785 11.4663126,3.72486 16.2568256,6.663232 l 6.0307,-7.390466 C 26.162445,71.391758 19.950966,68.910682 13.023145,67.225276 6.0951551,65.540111 -1.0107202,64.693866 -8.2945016,64.686539 -21.43853,64.649069 -32.906038,67.379336 -42.697061,72.877337 c -9.791081,5.49823 -14.934226,13.989746 -15.429451,25.474568 0.381447,10.817495 4.556743,18.381665 12.525902,22.692555 7.969106,4.31102 17.443319,7.29509 28.422667,8.9522 12.1214534,1.75375 22.2625723,4.16115 30.423386,7.22222 8.160644,3.06118 12.402546,9.50375 12.72572,19.32775 -0.386425,8.68221 -4.36256,14.98955 -11.928416,18.92206 -7.5660286,3.93254 -16.4038256,5.86737 -26.513418,5.80451 -8.864674,-0.0328 -17.300904,-1.3386 -25.308714,-3.91731 -8.007878,-2.5787 -14.407924,-6.23335 -19.200157,-10.96395 z" id="path3790" style="fill:#212121;fill-opacity:1" />
          </g>
     </g>
</svg>
